<mxfile host="app.diagrams.net" modified="2023-09-12T08:50:55.815Z" agent="Mozilla/5.0 (Windows NT 10.0; Win64; x64) AppleWebKit/537.36 (KHTML, like Gecko) Chrome/116.0.0.0 Safari/537.36 Edg/116.0.1938.76" etag="NFtRr5kUWWXlh_LhNnBh" version="21.7.4" type="onedrive">
  <diagram name="Seite-1" id="Nr2u1hR7h96ugxyO9wR_">
    <mxGraphModel dx="1622" dy="936" grid="1" gridSize="10" guides="1" tooltips="1" connect="1" arrows="1" fold="1" page="1" pageScale="1" pageWidth="1654" pageHeight="2336" math="0" shadow="0">
      <root>
        <mxCell id="0" />
        <mxCell id="1" parent="0" />
        <mxCell id="OgZBjtJ-NomViNMuKFCO-3" value="Legend" style="shape=table;startSize=30;container=1;collapsible=0;childLayout=tableLayout;fontSize=16;align=left;verticalAlign=top;fillColor=none;strokeColor=none;fontColor=#4D4D4D;fontStyle=1;spacingLeft=6;spacing=0;resizable=0;" parent="1" vertex="1">
          <mxGeometry x="1500" y="760" width="180" height="209.99999999999955" as="geometry" />
        </mxCell>
        <mxCell id="OgZBjtJ-NomViNMuKFCO-4" value="" style="shape=tableRow;horizontal=0;startSize=0;swimlaneHead=0;swimlaneBody=0;strokeColor=inherit;top=0;left=0;bottom=0;right=0;collapsible=0;dropTarget=0;fillColor=none;points=[[0,0.5],[1,0.5]];portConstraint=eastwest;fontSize=12;" parent="OgZBjtJ-NomViNMuKFCO-3" vertex="1">
          <mxGeometry y="30" width="180" height="30" as="geometry" />
        </mxCell>
        <mxCell id="OgZBjtJ-NomViNMuKFCO-5" value="Person" style="shape=partialRectangle;html=1;whiteSpace=wrap;connectable=0;strokeColor=inherit;overflow=hidden;fillColor=#1E4074;top=0;left=0;bottom=0;right=0;pointerEvents=1;fontSize=12;align=left;fontColor=#FFFFFF;gradientColor=none;spacingLeft=10;spacingRight=4;" parent="OgZBjtJ-NomViNMuKFCO-4" vertex="1">
          <mxGeometry width="180" height="30" as="geometry">
            <mxRectangle width="180" height="30" as="alternateBounds" />
          </mxGeometry>
        </mxCell>
        <mxCell id="OgZBjtJ-NomViNMuKFCO-6" value="" style="shape=tableRow;horizontal=0;startSize=0;swimlaneHead=0;swimlaneBody=0;strokeColor=inherit;top=0;left=0;bottom=0;right=0;collapsible=0;dropTarget=0;fillColor=none;points=[[0,0.5],[1,0.5]];portConstraint=eastwest;fontSize=12;" parent="OgZBjtJ-NomViNMuKFCO-3" vertex="1">
          <mxGeometry y="60" width="180" height="30" as="geometry" />
        </mxCell>
        <mxCell id="OgZBjtJ-NomViNMuKFCO-7" value="Software System" style="shape=partialRectangle;html=1;whiteSpace=wrap;connectable=0;strokeColor=inherit;overflow=hidden;fillColor=#3162AF;top=0;left=0;bottom=0;right=0;pointerEvents=1;fontSize=12;align=left;fontColor=#FFFFFF;gradientColor=none;spacingLeft=10;spacingRight=4;" parent="OgZBjtJ-NomViNMuKFCO-6" vertex="1">
          <mxGeometry width="180" height="30" as="geometry">
            <mxRectangle width="180" height="30" as="alternateBounds" />
          </mxGeometry>
        </mxCell>
        <mxCell id="OgZBjtJ-NomViNMuKFCO-8" value="" style="shape=tableRow;horizontal=0;startSize=0;swimlaneHead=0;swimlaneBody=0;strokeColor=inherit;top=0;left=0;bottom=0;right=0;collapsible=0;dropTarget=0;fillColor=none;points=[[0,0.5],[1,0.5]];portConstraint=eastwest;fontSize=12;" parent="OgZBjtJ-NomViNMuKFCO-3" vertex="1">
          <mxGeometry y="90" width="180" height="30" as="geometry" />
        </mxCell>
        <mxCell id="OgZBjtJ-NomViNMuKFCO-9" value="Container" style="shape=partialRectangle;html=1;whiteSpace=wrap;connectable=0;strokeColor=inherit;overflow=hidden;fillColor=#52a2d8;top=0;left=0;bottom=0;right=0;pointerEvents=1;fontSize=12;align=left;fontColor=#FFFFFF;gradientColor=none;spacingLeft=10;spacingRight=4;" parent="OgZBjtJ-NomViNMuKFCO-8" vertex="1">
          <mxGeometry width="180" height="30" as="geometry">
            <mxRectangle width="180" height="30" as="alternateBounds" />
          </mxGeometry>
        </mxCell>
        <mxCell id="OgZBjtJ-NomViNMuKFCO-10" value="" style="shape=tableRow;horizontal=0;startSize=0;swimlaneHead=0;swimlaneBody=0;strokeColor=inherit;top=0;left=0;bottom=0;right=0;collapsible=0;dropTarget=0;fillColor=none;points=[[0,0.5],[1,0.5]];portConstraint=eastwest;fontSize=12;" parent="OgZBjtJ-NomViNMuKFCO-3" vertex="1">
          <mxGeometry y="120" width="180" height="30" as="geometry" />
        </mxCell>
        <mxCell id="OgZBjtJ-NomViNMuKFCO-11" value="Component" style="shape=partialRectangle;html=1;whiteSpace=wrap;connectable=0;strokeColor=inherit;overflow=hidden;fillColor=#7dbef2;top=0;left=0;bottom=0;right=0;pointerEvents=1;fontSize=12;align=left;fontColor=#FFFFFF;gradientColor=none;spacingLeft=10;spacingRight=4;" parent="OgZBjtJ-NomViNMuKFCO-10" vertex="1">
          <mxGeometry width="180" height="30" as="geometry">
            <mxRectangle width="180" height="30" as="alternateBounds" />
          </mxGeometry>
        </mxCell>
        <mxCell id="OgZBjtJ-NomViNMuKFCO-12" value="" style="shape=tableRow;horizontal=0;startSize=0;swimlaneHead=0;swimlaneBody=0;strokeColor=inherit;top=0;left=0;bottom=0;right=0;collapsible=0;dropTarget=0;fillColor=none;points=[[0,0.5],[1,0.5]];portConstraint=eastwest;fontSize=12;" parent="OgZBjtJ-NomViNMuKFCO-3" vertex="1">
          <mxGeometry y="150" width="180" height="30" as="geometry" />
        </mxCell>
        <mxCell id="OgZBjtJ-NomViNMuKFCO-13" value="External Person" style="shape=partialRectangle;html=1;whiteSpace=wrap;connectable=0;strokeColor=inherit;overflow=hidden;fillColor=#6b6477;top=0;left=0;bottom=0;right=0;pointerEvents=1;fontSize=12;align=left;fontColor=#FFFFFF;gradientColor=none;spacingLeft=10;spacingRight=4;" parent="OgZBjtJ-NomViNMuKFCO-12" vertex="1">
          <mxGeometry width="180" height="30" as="geometry">
            <mxRectangle width="180" height="30" as="alternateBounds" />
          </mxGeometry>
        </mxCell>
        <mxCell id="OgZBjtJ-NomViNMuKFCO-14" value="" style="shape=tableRow;horizontal=0;startSize=0;swimlaneHead=0;swimlaneBody=0;strokeColor=inherit;top=0;left=0;bottom=0;right=0;collapsible=0;dropTarget=0;fillColor=none;points=[[0,0.5],[1,0.5]];portConstraint=eastwest;fontSize=12;" parent="OgZBjtJ-NomViNMuKFCO-3" vertex="1">
          <mxGeometry y="180" width="180" height="30" as="geometry" />
        </mxCell>
        <mxCell id="OgZBjtJ-NomViNMuKFCO-15" value="External Software System" style="shape=partialRectangle;html=1;whiteSpace=wrap;connectable=0;strokeColor=inherit;overflow=hidden;fillColor=#8b8496;top=0;left=0;bottom=0;right=0;pointerEvents=1;fontSize=12;align=left;fontColor=#FFFFFF;gradientColor=none;spacingLeft=10;spacingRight=4;" parent="OgZBjtJ-NomViNMuKFCO-14" vertex="1">
          <mxGeometry width="180" height="30" as="geometry">
            <mxRectangle width="180" height="30" as="alternateBounds" />
          </mxGeometry>
        </mxCell>
        <mxCell id="7dyLRfc8B-bBLUs6YG5J-10" style="edgeStyle=orthogonalEdgeStyle;rounded=0;orthogonalLoop=1;jettySize=auto;html=1;" edge="1" parent="1" source="ByFdooQVjw_topJzLV6J-2" target="ByFdooQVjw_topJzLV6J-3">
          <mxGeometry relative="1" as="geometry" />
        </mxCell>
        <mxCell id="7dyLRfc8B-bBLUs6YG5J-11" style="edgeStyle=orthogonalEdgeStyle;rounded=0;orthogonalLoop=1;jettySize=auto;html=1;" edge="1" parent="1" source="ByFdooQVjw_topJzLV6J-2" target="ByFdooQVjw_topJzLV6J-4">
          <mxGeometry relative="1" as="geometry" />
        </mxCell>
        <mxCell id="7dyLRfc8B-bBLUs6YG5J-12" style="edgeStyle=orthogonalEdgeStyle;rounded=0;orthogonalLoop=1;jettySize=auto;html=1;" edge="1" parent="1" source="ByFdooQVjw_topJzLV6J-2" target="7dyLRfc8B-bBLUs6YG5J-4">
          <mxGeometry relative="1" as="geometry" />
        </mxCell>
        <mxCell id="7dyLRfc8B-bBLUs6YG5J-14" style="edgeStyle=orthogonalEdgeStyle;rounded=0;orthogonalLoop=1;jettySize=auto;html=1;" edge="1" parent="1" source="ByFdooQVjw_topJzLV6J-2" target="7dyLRfc8B-bBLUs6YG5J-1">
          <mxGeometry relative="1" as="geometry" />
        </mxCell>
        <mxCell id="7dyLRfc8B-bBLUs6YG5J-26" value="&lt;font style=&quot;font-size: 12px;&quot;&gt;Triggers the production&lt;br style=&quot;box-sizing: content-box; -webkit-font-smoothing: antialiased; font-family: Helvetica, &amp;quot;VP Default&amp;quot;;&quot;&gt;&lt;span style=&quot;font-family: Helvetica, &amp;quot;VP Default&amp;quot;;&quot;&gt;planning process&lt;/span&gt;&lt;/font&gt;" style="edgeLabel;html=1;align=center;verticalAlign=middle;resizable=0;points=[];" vertex="1" connectable="0" parent="7dyLRfc8B-bBLUs6YG5J-14">
          <mxGeometry x="-0.1974" y="-3" relative="1" as="geometry">
            <mxPoint x="3" as="offset" />
          </mxGeometry>
        </mxCell>
        <mxCell id="7dyLRfc8B-bBLUs6YG5J-15" style="edgeStyle=orthogonalEdgeStyle;rounded=0;orthogonalLoop=1;jettySize=auto;html=1;entryX=1;entryY=0.5;entryDx=0;entryDy=0;entryPerimeter=0;" edge="1" parent="1" source="ByFdooQVjw_topJzLV6J-2" target="ByFdooQVjw_topJzLV6J-6">
          <mxGeometry relative="1" as="geometry" />
        </mxCell>
        <object placeholders="1" c4Name="BPA Lab System" c4Type="System" c4Description="Production and logistics of a bicycle manufacturer." label="&lt;font style=&quot;font-size: 16px&quot;&gt;&lt;b&gt;%c4Name%&lt;/b&gt;&lt;/font&gt;&lt;div&gt;[%c4Type%]&lt;/div&gt;&lt;br&gt;&lt;div&gt;&lt;font style=&quot;font-size: 11px&quot;&gt;&lt;font color=&quot;#cccccc&quot;&gt;%c4Description%&lt;/font&gt;&lt;/div&gt;" id="ByFdooQVjw_topJzLV6J-2">
          <mxCell style="rounded=1;whiteSpace=wrap;html=1;labelBackgroundColor=none;fillColor=#1061B0;fontColor=#ffffff;align=center;arcSize=10;strokeColor=#0D5091;metaEdit=1;resizable=1;points=[[0.25,0,0],[0.5,0,0],[0.75,0,0],[1,0.25,0],[1,0.5,0],[1,0.75,0],[0.75,1,0],[0.5,1,0],[0.25,1,0],[0,0.75,0],[0,0.5,0],[0,0.25,0]];editable=1;movable=1;rotatable=1;deletable=1;locked=0;connectable=1;" parent="1" vertex="1">
            <mxGeometry x="672" y="450" width="310" height="190" as="geometry" />
          </mxCell>
        </object>
        <mxCell id="7dyLRfc8B-bBLUs6YG5J-8" style="edgeStyle=orthogonalEdgeStyle;rounded=0;orthogonalLoop=1;jettySize=auto;html=1;" edge="1" parent="1" source="ByFdooQVjw_topJzLV6J-3" target="ByFdooQVjw_topJzLV6J-2">
          <mxGeometry relative="1" as="geometry" />
        </mxCell>
        <mxCell id="7dyLRfc8B-bBLUs6YG5J-21" value="&lt;font style=&quot;font-size: 12px;&quot;&gt;Transmits the order&lt;/font&gt;" style="edgeLabel;html=1;align=center;verticalAlign=middle;resizable=0;points=[];" vertex="1" connectable="0" parent="7dyLRfc8B-bBLUs6YG5J-8">
          <mxGeometry x="-0.1027" y="-2" relative="1" as="geometry">
            <mxPoint as="offset" />
          </mxGeometry>
        </mxCell>
        <object placeholders="1" c4Name="Order entry system" c4Type="Software System" c4Description="Single-page application through which a customer can place his order." label="&lt;font style=&quot;font-size: 16px&quot;&gt;&lt;b&gt;%c4Name%&lt;/b&gt;&lt;/font&gt;&lt;div&gt;[%c4Type%]&lt;/div&gt;&lt;br&gt;&lt;div&gt;&lt;font style=&quot;font-size: 11px&quot;&gt;&lt;font color=&quot;#cccccc&quot;&gt;%c4Description%&lt;/font&gt;&lt;/div&gt;" id="ByFdooQVjw_topJzLV6J-3">
          <mxCell style="rounded=1;whiteSpace=wrap;html=1;labelBackgroundColor=none;fillColor=#8C8496;fontColor=#ffffff;align=center;arcSize=10;strokeColor=#736782;metaEdit=1;resizable=0;points=[[0.25,0,0],[0.5,0,0],[0.75,0,0],[1,0.25,0],[1,0.5,0],[1,0.75,0],[0.75,1,0],[0.5,1,0],[0.25,1,0],[0,0.75,0],[0,0.5,0],[0,0.25,0]];" parent="1" vertex="1">
            <mxGeometry x="530" y="200" width="240" height="120" as="geometry" />
          </mxCell>
        </object>
        <mxCell id="7dyLRfc8B-bBLUs6YG5J-9" style="edgeStyle=orthogonalEdgeStyle;rounded=0;orthogonalLoop=1;jettySize=auto;html=1;entryX=0.5;entryY=0;entryDx=0;entryDy=0;entryPerimeter=0;" edge="1" parent="1" source="ByFdooQVjw_topJzLV6J-4" target="ByFdooQVjw_topJzLV6J-2">
          <mxGeometry relative="1" as="geometry" />
        </mxCell>
        <mxCell id="7dyLRfc8B-bBLUs6YG5J-22" value="&lt;font style=&quot;font-size: 12px;&quot;&gt;fetches process data&lt;br style=&quot;box-sizing: content-box; -webkit-font-smoothing: antialiased; font-family: Helvetica, &amp;quot;VP Default&amp;quot;;&quot;&gt;&lt;span style=&quot;font-family: Helvetica, &amp;quot;VP Default&amp;quot;;&quot;&gt;for Process Mining&amp;nbsp;&lt;/span&gt;&lt;/font&gt;" style="edgeLabel;html=1;align=center;verticalAlign=middle;resizable=0;points=[];" vertex="1" connectable="0" parent="7dyLRfc8B-bBLUs6YG5J-9">
          <mxGeometry x="-0.0161" y="-2" relative="1" as="geometry">
            <mxPoint x="-1" as="offset" />
          </mxGeometry>
        </mxCell>
        <object placeholders="1" c4Name="Process mining system" c4Type="Software System" c4Description="Analyze, pre-process, and apply process mining techniques on process data." label="&lt;font style=&quot;font-size: 16px&quot;&gt;&lt;b&gt;%c4Name%&lt;/b&gt;&lt;/font&gt;&lt;div&gt;[%c4Type%]&lt;/div&gt;&lt;br&gt;&lt;div&gt;&lt;font style=&quot;font-size: 11px&quot;&gt;&lt;font color=&quot;#cccccc&quot;&gt;%c4Description%&lt;/font&gt;&lt;/div&gt;" id="ByFdooQVjw_topJzLV6J-4">
          <mxCell style="rounded=1;whiteSpace=wrap;html=1;labelBackgroundColor=none;fillColor=#8C8496;fontColor=#ffffff;align=center;arcSize=10;strokeColor=#736782;metaEdit=1;resizable=0;points=[[0.25,0,0],[0.5,0,0],[0.75,0,0],[1,0.25,0],[1,0.5,0],[1,0.75,0],[0.75,1,0],[0.5,1,0],[0.25,1,0],[0,0.75,0],[0,0.5,0],[0,0.25,0]];" parent="1" vertex="1">
            <mxGeometry x="870" y="200" width="240" height="120" as="geometry" />
          </mxCell>
        </object>
        <mxCell id="7dyLRfc8B-bBLUs6YG5J-18" style="edgeStyle=orthogonalEdgeStyle;rounded=0;orthogonalLoop=1;jettySize=auto;html=1;entryX=0;entryY=0.5;entryDx=0;entryDy=0;entryPerimeter=0;" edge="1" parent="1" source="ByFdooQVjw_topJzLV6J-5" target="ByFdooQVjw_topJzLV6J-3">
          <mxGeometry relative="1" as="geometry" />
        </mxCell>
        <mxCell id="7dyLRfc8B-bBLUs6YG5J-20" value="&lt;font style=&quot;font-size: 12px;&quot;&gt;Places an order&lt;/font&gt;" style="edgeLabel;html=1;align=center;verticalAlign=middle;resizable=0;points=[];" vertex="1" connectable="0" parent="7dyLRfc8B-bBLUs6YG5J-18">
          <mxGeometry x="-0.2134" y="2" relative="1" as="geometry">
            <mxPoint as="offset" />
          </mxGeometry>
        </mxCell>
        <object placeholders="1" c4Name="Customer" c4Type="Person" c4Description="A customer of the bicycle manufacturer who wants to place an order." label="&lt;font style=&quot;font-size: 16px&quot;&gt;&lt;b&gt;%c4Name%&lt;/b&gt;&lt;/font&gt;&lt;div&gt;[%c4Type%]&lt;/div&gt;&lt;br&gt;&lt;div&gt;&lt;font style=&quot;font-size: 11px&quot;&gt;&lt;font color=&quot;#cccccc&quot;&gt;%c4Description%&lt;/font&gt;&lt;/div&gt;" id="ByFdooQVjw_topJzLV6J-5">
          <mxCell style="html=1;fontSize=11;dashed=0;whiteSpace=wrap;fillColor=#6C6477;strokeColor=#4D4D4D;fontColor=#ffffff;shape=mxgraph.c4.person2;align=center;metaEdit=1;points=[[0.5,0,0],[1,0.5,0],[1,0.75,0],[0.75,1,0],[0.5,1,0],[0.25,1,0],[0,0.75,0],[0,0.5,0]];resizable=1;editable=1;movable=1;rotatable=1;deletable=1;locked=0;connectable=1;" parent="1" vertex="1">
            <mxGeometry x="200" y="180" width="190" height="160" as="geometry" />
          </mxCell>
        </object>
        <mxCell id="7dyLRfc8B-bBLUs6YG5J-16" style="edgeStyle=orthogonalEdgeStyle;rounded=0;orthogonalLoop=1;jettySize=auto;html=1;" edge="1" parent="1" source="ByFdooQVjw_topJzLV6J-6" target="ByFdooQVjw_topJzLV6J-2">
          <mxGeometry relative="1" as="geometry" />
        </mxCell>
        <mxCell id="7dyLRfc8B-bBLUs6YG5J-23" value="&lt;div style=&quot;box-sizing: content-box; -webkit-font-smoothing: antialiased; font-family: Helvetica, &amp;quot;VP Default&amp;quot;; font-size: 12px;&quot;&gt;&lt;font style=&quot;font-size: 12px;&quot;&gt;Retrieves process data&lt;/font&gt;&lt;/div&gt;&lt;div style=&quot;box-sizing: content-box; -webkit-font-smoothing: antialiased; font-family: Helvetica, &amp;quot;VP Default&amp;quot;; font-size: 12px;&quot;&gt;&lt;font style=&quot;font-size: 12px;&quot;&gt;or reports end of process&lt;/font&gt;&lt;/div&gt;" style="edgeLabel;html=1;align=center;verticalAlign=middle;resizable=0;points=[];" vertex="1" connectable="0" parent="7dyLRfc8B-bBLUs6YG5J-16">
          <mxGeometry x="-0.0718" y="1" relative="1" as="geometry">
            <mxPoint x="4" y="-24" as="offset" />
          </mxGeometry>
        </mxCell>
        <mxCell id="7dyLRfc8B-bBLUs6YG5J-25" value="&lt;div style=&quot;box-sizing: content-box; -webkit-font-smoothing: antialiased; font-family: Helvetica, &amp;quot;VP Default&amp;quot;;&quot;&gt;Triggers the&amp;nbsp;&lt;/div&gt;&lt;div style=&quot;box-sizing: content-box; -webkit-font-smoothing: antialiased; font-family: Helvetica, &amp;quot;VP Default&amp;quot;; font-size: 12px;&quot;&gt;Order management process&lt;/div&gt;" style="edgeLabel;html=1;align=center;verticalAlign=middle;resizable=0;points=[];" vertex="1" connectable="0" parent="7dyLRfc8B-bBLUs6YG5J-16">
          <mxGeometry x="0.0147" relative="1" as="geometry">
            <mxPoint x="-8" y="15" as="offset" />
          </mxGeometry>
        </mxCell>
        <object placeholders="1" c4Name="Order management system" c4Type="Software System" c4Description="Responsible for the management of customer orders." label="&lt;font style=&quot;font-size: 16px&quot;&gt;&lt;b&gt;%c4Name%&lt;/b&gt;&lt;/font&gt;&lt;div&gt;[%c4Type%]&lt;/div&gt;&lt;br&gt;&lt;div&gt;&lt;font style=&quot;font-size: 11px&quot;&gt;&lt;font color=&quot;#cccccc&quot;&gt;%c4Description%&lt;/font&gt;&lt;/div&gt;" id="ByFdooQVjw_topJzLV6J-6">
          <mxCell style="rounded=1;whiteSpace=wrap;html=1;labelBackgroundColor=none;fillColor=#8C8496;fontColor=#ffffff;align=center;arcSize=10;strokeColor=#736782;metaEdit=1;resizable=0;points=[[0.25,0,0],[0.5,0,0],[0.75,0,0],[1,0.25,0],[1,0.5,0],[1,0.75,0],[0.75,1,0],[0.5,1,0],[0.25,1,0],[0,0.75,0],[0,0.5,0],[0,0.25,0]];" parent="1" vertex="1">
            <mxGeometry x="160" y="485" width="240" height="120" as="geometry" />
          </mxCell>
        </object>
        <object placeholders="1" c4Name="Production planining system" c4Type="Software System" c4Description="Generates production orders and is responsible for production planning." label="&lt;font style=&quot;font-size: 16px&quot;&gt;&lt;b&gt;%c4Name%&lt;/b&gt;&lt;/font&gt;&lt;div&gt;[%c4Type%]&lt;/div&gt;&lt;br&gt;&lt;div&gt;&lt;font style=&quot;font-size: 11px&quot;&gt;&lt;font color=&quot;#cccccc&quot;&gt;%c4Description%&lt;/font&gt;&lt;/div&gt;" id="7dyLRfc8B-bBLUs6YG5J-1">
          <mxCell style="rounded=1;whiteSpace=wrap;html=1;labelBackgroundColor=none;fillColor=#8C8496;fontColor=#ffffff;align=center;arcSize=10;strokeColor=#736782;metaEdit=1;resizable=0;points=[[0.25,0,0],[0.5,0,0],[0.75,0,0],[1,0.25,0],[1,0.5,0],[1,0.75,0],[0.75,1,0],[0.5,1,0],[0.25,1,0],[0,0.75,0],[0,0.5,0],[0,0.25,0]];" vertex="1" parent="1">
            <mxGeometry x="707" y="740" width="240" height="120" as="geometry" />
          </mxCell>
        </object>
        <mxCell id="7dyLRfc8B-bBLUs6YG5J-17" style="edgeStyle=orthogonalEdgeStyle;rounded=0;orthogonalLoop=1;jettySize=auto;html=1;entryX=0.5;entryY=1;entryDx=0;entryDy=0;entryPerimeter=0;" edge="1" parent="1" source="7dyLRfc8B-bBLUs6YG5J-2" target="ByFdooQVjw_topJzLV6J-6">
          <mxGeometry relative="1" as="geometry" />
        </mxCell>
        <mxCell id="7dyLRfc8B-bBLUs6YG5J-34" value="&lt;font style=&quot;font-size: 12px;&quot;&gt;Takes over manual tasks&lt;/font&gt;" style="edgeLabel;html=1;align=center;verticalAlign=middle;resizable=0;points=[];" vertex="1" connectable="0" parent="7dyLRfc8B-bBLUs6YG5J-17">
          <mxGeometry x="0.003" relative="1" as="geometry">
            <mxPoint as="offset" />
          </mxGeometry>
        </mxCell>
        <object placeholders="1" c4Name="Order management employee" c4Type="Person" c4Description="Takes over the manual tasks in the order management process." label="&lt;font style=&quot;font-size: 16px&quot;&gt;&lt;b&gt;%c4Name%&lt;/b&gt;&lt;/font&gt;&lt;div&gt;[%c4Type%]&lt;/div&gt;&lt;br&gt;&lt;div&gt;&lt;font style=&quot;font-size: 11px&quot;&gt;&lt;font color=&quot;#cccccc&quot;&gt;%c4Description%&lt;/font&gt;&lt;/div&gt;" id="7dyLRfc8B-bBLUs6YG5J-2">
          <mxCell style="html=1;fontSize=11;dashed=0;whiteSpace=wrap;fillColor=#083F75;strokeColor=#06315C;fontColor=#ffffff;shape=mxgraph.c4.person2;align=center;metaEdit=1;points=[[0.5,0,0],[1,0.5,0],[1,0.75,0],[0.75,1,0],[0.5,1,0],[0.25,1,0],[0,0.75,0],[0,0.5,0]];resizable=0;" vertex="1" parent="1">
            <mxGeometry x="180" y="700" width="200" height="180" as="geometry" />
          </mxCell>
        </object>
        <mxCell id="7dyLRfc8B-bBLUs6YG5J-19" style="edgeStyle=orthogonalEdgeStyle;rounded=0;orthogonalLoop=1;jettySize=auto;html=1;" edge="1" parent="1" source="7dyLRfc8B-bBLUs6YG5J-3" target="7dyLRfc8B-bBLUs6YG5J-1">
          <mxGeometry relative="1" as="geometry" />
        </mxCell>
        <mxCell id="7dyLRfc8B-bBLUs6YG5J-29" value="&lt;font style=&quot;font-size: 12px;&quot;&gt;Takes over manual tasks&lt;/font&gt;" style="edgeLabel;html=1;align=center;verticalAlign=middle;resizable=0;points=[];" vertex="1" connectable="0" parent="7dyLRfc8B-bBLUs6YG5J-19">
          <mxGeometry x="-0.1336" y="-2" relative="1" as="geometry">
            <mxPoint as="offset" />
          </mxGeometry>
        </mxCell>
        <object placeholders="1" c4Name="Production planning employee" c4Type="Person" c4Description="Takes over manual activities in the production planning process." label="&lt;font style=&quot;font-size: 16px&quot;&gt;&lt;b&gt;%c4Name%&lt;/b&gt;&lt;/font&gt;&lt;div&gt;[%c4Type%]&lt;/div&gt;&lt;br&gt;&lt;div&gt;&lt;font style=&quot;font-size: 11px&quot;&gt;&lt;font color=&quot;#cccccc&quot;&gt;%c4Description%&lt;/font&gt;&lt;/div&gt;" id="7dyLRfc8B-bBLUs6YG5J-3">
          <mxCell style="html=1;fontSize=11;dashed=0;whiteSpace=wrap;fillColor=#083F75;strokeColor=#06315C;fontColor=#ffffff;shape=mxgraph.c4.person2;align=center;metaEdit=1;points=[[0.5,0,0],[1,0.5,0],[1,0.75,0],[0.75,1,0],[0.5,1,0],[0.25,1,0],[0,0.75,0],[0,0.5,0]];resizable=0;" vertex="1" parent="1">
            <mxGeometry x="1110" y="710" width="200" height="180" as="geometry" />
          </mxCell>
        </object>
        <mxCell id="7dyLRfc8B-bBLUs6YG5J-13" style="edgeStyle=orthogonalEdgeStyle;rounded=0;orthogonalLoop=1;jettySize=auto;html=1;entryX=1;entryY=0.5;entryDx=0;entryDy=0;entryPerimeter=0;" edge="1" parent="1" source="7dyLRfc8B-bBLUs6YG5J-4" target="ByFdooQVjw_topJzLV6J-2">
          <mxGeometry relative="1" as="geometry" />
        </mxCell>
        <mxCell id="7dyLRfc8B-bBLUs6YG5J-27" value="&lt;font style=&quot;font-size: 12px;&quot;&gt;Reports end of process&lt;/font&gt;" style="edgeLabel;html=1;align=center;verticalAlign=middle;resizable=0;points=[];" vertex="1" connectable="0" parent="7dyLRfc8B-bBLUs6YG5J-13">
          <mxGeometry x="0.1142" y="-2" relative="1" as="geometry">
            <mxPoint x="13" y="-13" as="offset" />
          </mxGeometry>
        </mxCell>
        <mxCell id="7dyLRfc8B-bBLUs6YG5J-28" value="&lt;font style=&quot;font-size: 12px;&quot;&gt;Commissioned&lt;/font&gt;" style="edgeLabel;html=1;align=center;verticalAlign=middle;resizable=0;points=[];" vertex="1" connectable="0" parent="7dyLRfc8B-bBLUs6YG5J-13">
          <mxGeometry x="0.0252" y="-2" relative="1" as="geometry">
            <mxPoint y="17" as="offset" />
          </mxGeometry>
        </mxCell>
        <object placeholders="1" c4Name="Shipping system" c4Type="Software System" c4Description=" An RPA solution responsible for shipping the final product." label="&lt;font style=&quot;font-size: 16px&quot;&gt;&lt;b&gt;%c4Name%&lt;/b&gt;&lt;/font&gt;&lt;div&gt;[%c4Type%]&lt;/div&gt;&lt;br&gt;&lt;div&gt;&lt;font style=&quot;font-size: 11px&quot;&gt;&lt;font color=&quot;#cccccc&quot;&gt;%c4Description%&lt;/font&gt;&lt;/div&gt;" id="7dyLRfc8B-bBLUs6YG5J-4">
          <mxCell style="rounded=1;whiteSpace=wrap;html=1;labelBackgroundColor=none;fillColor=#8C8496;fontColor=#ffffff;align=center;arcSize=10;strokeColor=#736782;metaEdit=1;resizable=0;points=[[0.25,0,0],[0.5,0,0],[0.75,0,0],[1,0.25,0],[1,0.5,0],[1,0.75,0],[0.75,1,0],[0.5,1,0],[0.25,1,0],[0,0.75,0],[0,0.5,0],[0,0.25,0]];" vertex="1" parent="1">
            <mxGeometry x="1220" y="485" width="240" height="120" as="geometry" />
          </mxCell>
        </object>
        <mxCell id="7dyLRfc8B-bBLUs6YG5J-7" style="edgeStyle=orthogonalEdgeStyle;rounded=0;orthogonalLoop=1;jettySize=auto;html=1;" edge="1" parent="1" source="7dyLRfc8B-bBLUs6YG5J-6" target="7dyLRfc8B-bBLUs6YG5J-4">
          <mxGeometry relative="1" as="geometry" />
        </mxCell>
        <mxCell id="7dyLRfc8B-bBLUs6YG5J-31" value="&lt;font style=&quot;font-size: 12px;&quot;&gt;Takes over manual tasks&lt;/font&gt;" style="edgeLabel;html=1;align=center;verticalAlign=middle;resizable=0;points=[];" vertex="1" connectable="0" parent="7dyLRfc8B-bBLUs6YG5J-7">
          <mxGeometry x="-0.1619" y="-3" relative="1" as="geometry">
            <mxPoint as="offset" />
          </mxGeometry>
        </mxCell>
        <object placeholders="1" c4Name="Logistics employee" c4Type="Person" c4Description="A customer of the bicycle manufacturer who wants to place an order." label="&lt;font style=&quot;font-size: 16px&quot;&gt;&lt;b&gt;%c4Name%&lt;/b&gt;&lt;/font&gt;&lt;div&gt;[%c4Type%]&lt;/div&gt;&lt;br&gt;&lt;div&gt;&lt;font style=&quot;font-size: 11px&quot;&gt;&lt;font color=&quot;#cccccc&quot;&gt;%c4Description%&lt;/font&gt;&lt;/div&gt;" id="7dyLRfc8B-bBLUs6YG5J-6">
          <mxCell style="html=1;fontSize=11;dashed=0;whiteSpace=wrap;fillColor=#6C6477;strokeColor=#4D4D4D;fontColor=#ffffff;shape=mxgraph.c4.person2;align=center;metaEdit=1;points=[[0.5,0,0],[1,0.5,0],[1,0.75,0],[0.75,1,0],[0.5,1,0],[0.25,1,0],[0,0.75,0],[0,0.5,0]];resizable=1;editable=1;movable=1;rotatable=1;deletable=1;locked=0;connectable=1;" vertex="1" parent="1">
            <mxGeometry x="1245" y="220" width="190" height="160" as="geometry" />
          </mxCell>
        </object>
        <object placeholders="1" c4Name="BPA LAB C4-System-Context" c4Type="ContainerScopeBoundary" c4Description="" label="&lt;font style=&quot;font-size: 16px&quot;&gt;&lt;b&gt;&lt;div style=&quot;text-align: left&quot;&gt;%c4Name%&lt;/div&gt;&lt;/b&gt;&lt;/font&gt;&lt;div style=&quot;text-align: left&quot;&gt;%c4Description%&lt;/div&gt;" id="7dyLRfc8B-bBLUs6YG5J-35">
          <mxCell style="text;html=1;strokeColor=none;fillColor=none;align=left;verticalAlign=top;whiteSpace=wrap;rounded=0;metaEdit=1;allowArrows=0;resizable=1;rotatable=0;connectable=0;recursiveResize=0;expand=0;pointerEvents=0;points=[[0.25,0,0],[0.5,0,0],[0.75,0,0],[1,0.25,0],[1,0.5,0],[1,0.75,0],[0.75,1,0],[0.5,1,0],[0.25,1,0],[0,0.75,0],[0,0.5,0],[0,0.25,0]];" vertex="1" parent="1">
            <mxGeometry x="672" y="990" width="230" height="30" as="geometry" />
          </mxCell>
        </object>
      </root>
    </mxGraphModel>
  </diagram>
</mxfile>
